<svg width="360" height="207" viewBox="0 0 360 207" fill="none" xmlns="http://www.w3.org/2000/svg">
<path d="M377.85 65.79C377.85 65.79 313.07 -6.19997 183.14 54.02C87.05 98.56 97.27 206.98 97.27 206.98H333.72L377.84 65.78L377.85 65.79Z" fill="#3AC11E"/>
<path d="M-4 37.22C-4 37.22 116.49 29.93 161.29 70.27C206.09 110.61 233.01 195.22 233.01 195.22H-3.44L-4 37.22Z" fill="#A7D124"/>
<g clip-path="url(#clip0_310_1550)">
<path d="M280.505 116.268C285.359 128.248 292.165 172.768 292 182H263.505C263.505 182 255.087 137.15 258.164 125.335C261.242 113.52 280.505 116.268 280.505 116.268Z" fill="white"/>
<path d="M255.243 89.067C255.243 89.067 270.466 94.8921 280.505 116.268C268.203 123.064 264.311 138.936 264.311 138.936L244.884 121.452L255.243 89.0756V89.067Z" fill="#674023"/>
<path d="M238.572 96.1923L240.956 85.1315C236.96 85.0535 231.065 84.9581 224.138 84.9061C230.874 93.2277 238.581 96.1923 238.581 96.1923H238.572Z" fill="white"/>
<path d="M267.388 115.93C271.758 90.3672 246.504 85.2529 246.504 85.2529C246.504 85.2529 245.889 85.2355 244.779 85.2095C247.207 86.5444 250.553 88.5295 253.63 90.8093C247.961 91.13 241 90.6879 238.572 96.1923C222.222 92.3089 215.582 87.4459 215.582 87.4459C215.582 87.4459 216.223 86.4318 217.134 84.8628C215.773 84.8628 214.394 84.8628 212.99 84.8628C180.446 110.816 192.591 182 192.591 182H270.795C272.737 162.73 263.019 141.493 267.397 115.93H267.388Z" fill="#674023"/>
<path d="M241.32 83.3979L240.948 85.1316C242.551 85.1662 243.843 85.1922 244.779 85.2096C242.725 84.074 241.32 83.3979 241.32 83.3979Z" fill="#F15A24"/>
<path d="M253.63 90.8093C250.561 88.5295 247.215 86.5531 244.779 85.2095C243.843 85.1922 242.551 85.1575 240.947 85.1315L238.563 96.1923C240.991 90.6879 247.952 91.13 253.622 90.8093H253.63Z" fill="#F15A24"/>
<path d="M220.194 79.1071C219.154 81.2655 218.018 83.3285 217.125 84.8628C219.552 84.8628 221.893 84.8802 224.13 84.8975C222.751 83.1985 221.416 81.2741 220.194 79.1071Z" fill="#F15A24"/>
<path d="M238.572 96.1923C238.572 96.1923 230.874 93.2277 224.13 84.9061C221.893 84.8888 219.552 84.8715 217.125 84.8715C216.215 86.4404 215.573 87.4546 215.573 87.4546C215.573 87.4546 222.214 92.3089 238.564 96.201L238.572 96.1923Z" fill="#F15A24"/>
<path d="M235.634 62.1519C264.787 62.1519 288.42 52.1274 288.42 39.7616C288.42 27.3958 264.787 17.3713 235.634 17.3713C206.481 17.3713 182.847 27.3958 182.847 39.7616C182.847 52.1274 206.481 62.1519 235.634 62.1519Z" fill="#674023"/>
<path d="M225.933 3.12927H245.256C259.578 3.12927 271.203 14.7535 271.203 29.0735V29.689H199.986V29.0735C199.986 14.7535 211.612 3.12927 225.933 3.12927Z" fill="#674023"/>
<path d="M271.246 53.4142C270.847 73.1 258.693 87.2467 235.599 87.4894C212.504 87.7321 200.021 72.8919 199.951 53.1888C199.882 33.4857 212.617 17.432 235.737 17.2673C258.858 17.1026 271.636 33.7285 271.237 53.4142H271.246Z" fill="white"/>
<path d="M241.537 54.7751C241.13 54.3937 240.93 53.9169 240.93 53.3448V51.4638C240.93 50.1896 241.121 48.9933 241.503 47.8838C241.884 46.7742 242.439 45.8034 243.167 44.9799C243.904 44.1477 244.806 43.4976 245.863 43.0382C246.921 42.5788 248.108 42.3447 249.435 42.3447C250.761 42.3447 252.01 42.5788 253.102 43.0382C254.194 43.4976 255.122 44.1477 255.885 44.9799C256.639 45.8121 257.211 46.8176 257.61 47.9705C258.009 49.132 258.208 50.3976 258.208 51.7845V53.3448C258.208 53.9083 258.009 54.385 257.618 54.7751C257.211 55.1565 256.726 55.3472 256.153 55.3472C255.581 55.3472 255.104 55.1565 254.723 54.7751C254.316 54.3937 254.116 53.9169 254.116 53.3448V51.8019C254.116 50.987 254.012 50.2502 253.804 49.5914C253.596 48.9326 253.293 48.3605 252.902 47.9011C252.512 47.4244 252.027 47.0603 251.455 46.8089C250.883 46.5575 250.25 46.4362 249.556 46.4362C248.126 46.4362 247.016 46.8869 246.236 47.7798C245.456 48.6726 245.066 49.9989 245.066 51.7585V53.3535C245.066 53.9256 244.866 54.4024 244.459 54.7838C244.051 55.1652 243.566 55.3559 243.011 55.3559C242.456 55.3559 241.962 55.1652 241.563 54.7838L241.537 54.7751Z" fill="#674023"/>
<path d="M213.519 57.2542C213.172 56.9335 212.999 56.5261 212.999 56.032V47.7017C212.999 46.6009 213.155 45.5867 213.475 44.6418C213.796 43.7057 214.264 42.8822 214.888 42.18C215.521 41.4692 216.284 40.9145 217.194 40.5244C218.096 40.1343 219.119 39.9349 220.246 39.9349C221.373 39.9349 222.777 40.1343 223.714 40.5244C224.641 40.9145 225.43 41.4692 226.08 42.18C226.722 42.8908 227.207 43.7403 227.554 44.7285C227.892 45.7167 228.065 46.8002 228.065 47.9791V56.032C228.065 56.5088 227.901 56.9162 227.563 57.2542C227.216 57.5836 226.808 57.7397 226.332 57.7397C225.855 57.7397 225.43 57.575 225.083 57.2542C224.736 56.9335 224.563 56.5261 224.563 56.032V54.6364H216.501V56.032C216.501 56.5174 216.327 56.9248 215.981 57.2542C215.634 57.5836 215.226 57.7397 214.75 57.7397C214.273 57.7397 213.857 57.575 213.527 57.2542H213.519ZM223.497 49.9295C224.078 49.9295 224.546 49.4614 224.546 48.8806V47.9965C224.546 47.303 224.459 46.6789 224.277 46.1154C224.095 45.552 223.844 45.0753 223.505 44.6765C223.159 44.2691 222.751 43.957 222.274 43.749C221.798 43.5323 220.905 43.4283 220.315 43.4283C219.11 43.4283 218.165 43.8183 217.498 44.5898C216.83 45.3613 216.492 46.4882 216.492 47.9618V48.898C216.492 49.4788 216.96 49.9468 217.541 49.9468H223.497V49.9295Z" fill="#674023"/>
<path d="M214.741 57.7397H226.323V52.5387H214.862L214.741 57.7397Z" fill="#674023"/>
<path d="M231.897 75.1456C230.831 74.6862 229.929 74.0361 229.192 73.1866C228.464 72.3718 227.909 71.4183 227.537 70.3087C227.164 69.2078 226.973 68.0029 226.973 66.72V65.9312C226.973 65.3591 227.173 64.8824 227.58 64.5009C227.961 64.1195 228.438 63.9288 229.01 63.9288C229.583 63.9288 230.059 64.1195 230.458 64.5009C230.866 64.8824 231.065 65.3591 231.065 65.9312V66.4513C231.065 68.1936 231.455 69.5112 232.235 70.4127C233.016 71.3056 234.125 71.7563 235.556 71.7563C236.249 71.7563 236.873 71.635 237.437 71.3836C238 71.1322 238.486 70.7681 238.884 70.2914C239.275 69.8233 239.578 69.2598 239.786 68.6011C239.994 67.9423 240.098 67.1968 240.098 66.3906V65.9399C240.098 65.3678 240.298 64.891 240.705 64.5096C241.112 64.1282 241.598 63.9375 242.17 63.9375C242.742 63.9375 243.219 64.1282 243.618 64.5096C244.008 64.8997 244.207 65.3851 244.207 65.9399V66.4253C244.207 67.8122 244.008 69.0778 243.609 70.2307C243.21 71.3836 242.63 72.3804 241.884 73.2126C241.121 74.0621 240.194 74.7122 239.101 75.163C238.009 75.6137 236.795 75.8478 235.452 75.8478C234.108 75.8478 232.929 75.6137 231.871 75.1543L231.897 75.1456Z" fill="#674023"/>
<path d="M212.617 69.936C213.503 69.936 214.221 69.2181 214.221 68.3324C214.221 67.4467 213.503 66.7288 212.617 66.7288C211.731 66.7288 211.013 67.4467 211.013 68.3324C211.013 69.2181 211.731 69.936 212.617 69.936Z" fill="#674023"/>
<path d="M208.56 64.8391C209.446 64.8391 210.164 64.1211 210.164 63.2354C210.164 62.3497 209.446 61.6318 208.56 61.6318C207.674 61.6318 206.956 62.3497 206.956 63.2354C206.956 64.1211 207.674 64.8391 208.56 64.8391Z" fill="#674023"/>
<path d="M216.683 64.8391C217.569 64.8391 218.287 64.1211 218.287 63.2354C218.287 62.3497 217.569 61.6318 216.683 61.6318C215.797 61.6318 215.079 62.3497 215.079 63.2354C215.079 64.1211 215.797 64.8391 216.683 64.8391Z" fill="#674023"/>
<path d="M258.589 69.936C259.475 69.936 260.193 69.2181 260.193 68.3324C260.193 67.4467 259.475 66.7288 258.589 66.7288C257.704 66.7288 256.986 67.4467 256.986 68.3324C256.986 69.2181 257.704 69.936 258.589 69.936Z" fill="#674023"/>
<path d="M254.532 64.8391C255.418 64.8391 256.136 64.1211 256.136 63.2354C256.136 62.3497 255.418 61.6318 254.532 61.6318C253.647 61.6318 252.928 62.3497 252.928 63.2354C252.928 64.1211 253.647 64.8391 254.532 64.8391Z" fill="#674023"/>
<path d="M262.655 64.8391C263.541 64.8391 264.259 64.1211 264.259 63.2354C264.259 62.3497 263.541 61.6318 262.655 61.6318C261.77 61.6318 261.052 62.3497 261.052 63.2354C261.052 64.1211 261.77 64.8391 262.655 64.8391Z" fill="#674023"/>
<path d="M256.006 13.9647L235.607 12.7858L215.209 13.9647C215.209 13.9647 196.978 26.2043 194.204 48.1525C194.204 48.1525 203.02 33.5204 235.607 33.5204C268.195 33.5204 277.011 48.1525 277.011 48.1525C274.237 26.2043 256.006 13.9647 256.006 13.9647Z" fill="#674023"/>
<path d="M206.193 56.6041C206.193 61.9438 204.373 67.7949 199.111 67.7949C193.848 67.7949 188.508 61.8571 188.508 56.5175C188.508 51.1778 191.404 46.939 196.666 46.939C201.928 46.939 206.193 51.2645 206.193 56.6041Z" fill="white"/>
<path d="M193.892 56.162C193.892 56.162 197.42 55.6419 200.082 58.5892" stroke="#674023" stroke-width="2" stroke-miterlimit="10" stroke-linecap="round"/>
<path d="M265.065 56.6041C265.065 61.9438 266.886 67.7949 272.148 67.7949C277.41 67.7949 282.75 61.8571 282.75 56.5175C282.75 51.1778 279.855 46.939 274.593 46.939C269.33 46.939 265.065 51.2645 265.065 56.6041Z" fill="white"/>
<path d="M277.367 56.162C277.367 56.162 273.838 55.6419 271.177 58.5892" stroke="#674023" stroke-width="2" stroke-miterlimit="10" stroke-linecap="round"/>
<path d="M174.508 90.7226C174.508 90.7226 158.08 89.7691 149.151 68.5491C144.166 56.6995 120.317 62.2039 127.079 83.0858C133.841 103.968 158.539 130.441 187.927 120.256C220.645 108.917 197.264 91.4161 174.508 90.7226Z" fill="white"/>
<path d="M172.817 88.7202C172.046 88.9022 171.872 89.9164 172.54 90.3412C176.146 92.6209 181.998 105.658 178.504 121.322C178.105 123.09 179.44 124.772 181.261 124.824C197.247 125.292 211.247 118.678 220.515 100.908C225.543 91.2687 220.012 79.6705 209.435 77.1827C204.312 75.9778 197.758 76.1078 191.092 80.7627C185.595 84.5941 179.345 87.2032 172.817 88.7289V88.7202Z" fill="#674023"/>
<path d="M116.199 121.218C115.879 120.299 115.948 119.389 116.407 118.496L163.446 28.068C162.128 27.0278 161.027 25.7796 160.16 24.3233C159.293 22.867 158.687 21.3067 158.348 19.6511C158.019 18.0648 157.941 16.4958 158.132 14.9355C158.314 13.3839 158.721 11.9103 159.354 10.5147L159.545 10.1506L163.862 1.85504C164.295 1.02288 164.98 0.459436 165.908 0.164713C166.809 -0.121341 167.694 -0.0346578 168.569 0.416095C169.445 0.866847 170.043 1.55164 170.32 2.42714C170.598 3.30264 170.502 4.18681 170.043 5.07098L165.674 13.4792C165.197 14.3894 164.928 15.3429 164.868 16.3311C164.798 17.3193 164.92 18.2902 165.232 19.2263C165.535 20.1885 166.012 21.0554 166.653 21.8268C167.304 22.5983 168.075 23.2224 168.985 23.6992C169.896 24.176 170.867 24.462 171.855 24.54C172.843 24.618 173.805 24.4967 174.742 24.1846C175.678 23.8726 176.536 23.3871 177.299 22.737C178.062 22.0869 178.686 21.2981 179.172 20.3706L183.489 12.075C183.922 11.2428 184.607 10.6794 185.535 10.3847C186.436 10.0986 187.329 10.1853 188.196 10.636C189.063 11.0868 189.67 11.7716 189.947 12.6471C190.225 13.5226 190.129 14.4068 189.67 15.2909L185.543 23.2224C184.772 24.7047 183.818 26.0136 182.674 27.1405C181.53 28.2674 180.264 29.1776 178.868 29.8624C177.472 30.5472 175.999 30.9979 174.456 31.206C172.912 31.414 171.369 31.3707 169.826 31.0586L122.649 121.747C122.198 122.622 121.505 123.203 120.568 123.498C120.135 123.654 119.684 123.706 119.225 123.662C118.765 123.619 118.323 123.498 117.916 123.281C117.023 122.821 116.451 122.128 116.191 121.218H116.199Z" fill="#161616"/>
<path d="M181.504 7.71481C181.963 6.82198 182.041 5.92047 181.712 4.99296C181.452 4.08279 180.879 3.39799 179.986 2.9299C179.579 2.72186 179.146 2.59184 178.677 2.5485C178.218 2.50515 177.767 2.56583 177.334 2.71319C176.406 3.00792 175.713 3.58869 175.253 4.46419L165.865 22.5203L172.098 25.7622L181.486 7.70614L181.504 7.71481Z" fill="#161616"/>
<path d="M144.2 63.9635C144.2 63.9635 148.812 68.367 143.958 77.7028C139.103 87.0386 132.254 84.204 132.254 84.204C132.254 84.204 129.766 68.6791 144.209 63.9548L144.2 63.9635Z" fill="white"/>
<path d="M229.01 63.9202H242.196V69.6933C242.196 71.895 240.41 73.6894 238.2 73.6894H233.05C230.857 73.6894 229.08 71.921 229.054 69.7279L229.002 63.9202H229.01Z" fill="#674023"/>
</g>
<defs>
<clipPath id="clip0_310_1550">
<rect width="176" height="182" fill="white" transform="translate(116)"/>
</clipPath>
</defs>
</svg>
