<svg width="360" height="153" viewBox="0 0 360 153" fill="none" xmlns="http://www.w3.org/2000/svg">
<g clip-path="url(#clip0_625_2426)">
<path d="M360 0H0V153H360V0Z" fill="#B6F1F2"/>
<path d="M277.51 25.95L291.14 25.95C292.951 25.95 294.42 24.4837 294.42 22.675C294.42 20.8662 292.951 19.4 291.14 19.4H277.51C275.698 19.4 274.23 20.8662 274.23 22.675C274.23 24.4837 275.698 25.95 277.51 25.95Z" fill="white"/>
<path d="M277.51 17.9L291.14 17.9C292.951 17.9 294.42 16.4338 294.42 14.625C294.42 12.8163 292.951 11.35 291.14 11.35L277.51 11.35C275.698 11.35 274.23 12.8163 274.23 14.625C274.23 16.4338 275.698 17.9 277.51 17.9Z" fill="white"/>
<path d="M267.7 22.2999L280.59 22.2999C282.606 22.2999 284.24 20.668 284.24 18.6549C284.24 16.6418 282.606 15.0099 280.59 15.0099L267.7 15.0099C265.684 15.0099 264.05 16.6418 264.05 18.6549C264.05 20.668 265.684 22.2999 267.7 22.2999Z" fill="white"/>
<path d="M360 11.81C360 11.81 288.1 9.64998 217.59 39.71C121.5 84.25 123.55 153 123.55 153H360V11.8V11.81Z" fill="#65BD40"/>
<path d="M235.67 150.18C236.72 151.91 237.01 153 237.01 153H0.56L0 20.71C0 20.71 159.46 23.77 235.67 150.18Z" fill="#AECF4A"/>
<path d="M44.87 14.5299L24.57 32.7499V62.2399H65.16V32.7499L44.87 14.5299Z" fill="#C93636"/>
<path d="M18.5 39.09L44.62 14.2L71.23 39.09" stroke="white" stroke-width="2.36" stroke-miterlimit="10"/>
<path d="M56.5 39.9399H33.23V61.8499H56.5V39.9399Z" fill="#4F4F4F"/>
<path d="M56.11 40.3299V61.4599H33.62V40.3299H56.11ZM56.9 39.5399H32.84V62.2399H56.9V39.5399Z" fill="white"/>
<path d="M44.87 40.01V62" stroke="white" stroke-width="0.79" stroke-miterlimit="10"/>
<path d="M50.57 25.84H38.17V34.06H50.57V25.84Z" stroke="white" stroke-width="0.79" stroke-miterlimit="10"/>
<path d="M50.56 25.84L38.17 34.06" stroke="white" stroke-width="0.79" stroke-miterlimit="10"/>
<path d="M38.17 25.84L50.56 34.06" stroke="white" stroke-width="0.79" stroke-miterlimit="10"/>
<path d="M82.91 15.6901H66.36C64.1619 15.6901 62.38 17.472 62.38 19.6701C62.38 21.8682 64.1619 23.6501 66.36 23.6501H82.91C85.1081 23.6501 86.89 21.8682 86.89 19.6701C86.89 17.472 85.1081 15.6901 82.91 15.6901Z" fill="white"/>
<path d="M82.91 5.92004H66.36C64.1619 5.92004 62.38 7.70195 62.38 9.90004C62.38 12.0981 64.1619 13.88 66.36 13.88H82.91C85.1081 13.88 86.89 12.0981 86.89 9.90004C86.89 7.70195 85.1081 5.92004 82.91 5.92004Z" fill="white"/>
<path d="M94.82 10.36H79.17C76.7234 10.36 74.74 12.3411 74.74 14.785C74.74 17.2288 76.7234 19.21 79.17 19.21H94.82C97.2666 19.21 99.25 17.2288 99.25 14.785C99.25 12.3411 97.2666 10.36 94.82 10.36Z" fill="white"/>
<path d="M172.26 46.9301H161.37C159.923 46.9301 158.75 48.1031 158.75 49.5501C158.75 50.997 159.923 52.1701 161.37 52.1701H172.26C173.707 52.1701 174.88 50.997 174.88 49.5501C174.88 48.1031 173.707 46.9301 172.26 46.9301Z" fill="white"/>
<path d="M172.26 40.5H161.37C159.923 40.5 158.75 41.673 158.75 43.12C158.75 44.567 159.923 45.74 161.37 45.74H172.26C173.707 45.74 174.88 44.567 174.88 43.12C174.88 41.673 173.707 40.5 172.26 40.5Z" fill="white"/>
<path d="M180.1 43.42H169.79C168.183 43.42 166.88 44.7229 166.88 46.33V46.34C166.88 47.9472 168.183 49.25 169.79 49.25H180.1C181.707 49.25 183.01 47.9472 183.01 46.34V46.33C183.01 44.7229 181.707 43.42 180.1 43.42Z" fill="white"/>
<path d="M216.07 16.66H199.76C197.595 16.66 195.84 18.4151 195.84 20.58C195.84 22.745 197.595 24.5 199.76 24.5H216.07C218.235 24.5 219.99 22.745 219.99 20.58C219.99 18.4151 218.235 16.66 216.07 16.66Z" fill="white"/>
<path d="M216.07 7.04004H199.76C197.595 7.04004 195.84 8.79508 195.84 10.96C195.84 13.125 197.595 14.88 199.76 14.88H216.07C218.235 14.88 219.99 13.125 219.99 10.96C219.99 8.79508 218.235 7.04004 216.07 7.04004Z" fill="white"/>
<path d="M227.81 11.41H212.38C209.972 11.41 208.02 13.3621 208.02 15.77C208.02 18.178 209.972 20.13 212.38 20.13H227.81C230.218 20.13 232.17 18.178 232.17 15.77C232.17 13.3621 230.218 11.41 227.81 11.41Z" fill="white"/>
<path d="M290.54 61.92C312.3 61.92 329.93 54.44 329.93 45.21C329.93 35.98 312.29 28.5 290.54 28.5C268.79 28.5 251.15 35.98 251.15 45.21C251.15 54.44 268.79 61.92 290.54 61.92Z" fill="#614228"/>
<path d="M283.3 17.88H297.72C308.41 17.88 317.08 26.55 317.08 37.24V37.7H263.94V37.24C263.94 26.55 272.62 17.88 283.3 17.88Z" fill="#614228"/>
<path d="M317.11 55.4001C316.81 70.0901 307.74 80.6501 290.51 80.8301C273.28 81.0101 263.96 69.9401 263.91 55.2301C263.86 40.5301 273.36 28.5501 290.61 28.4201C307.86 28.3001 317.4 40.7001 317.1 55.3901L317.11 55.4001Z" fill="white"/>
<path d="M294.94 56.42C294.64 56.14 294.49 55.78 294.49 55.35V53.95C294.49 53 294.63 52.11 294.92 51.28C295.2 50.45 295.62 49.73 296.16 49.11C296.71 48.49 297.38 48 298.17 47.66C298.96 47.32 299.85 47.14 300.84 47.14C301.83 47.14 302.76 47.31 303.58 47.66C304.39 48 305.09 48.49 305.66 49.11C306.22 49.73 306.65 50.48 306.95 51.34C307.25 52.21 307.4 53.15 307.4 54.19V55.35C307.4 55.77 307.25 56.13 306.96 56.42C306.66 56.7 306.29 56.85 305.87 56.85C305.45 56.85 305.09 56.71 304.8 56.42C304.5 56.14 304.35 55.78 304.35 55.35V54.2C304.35 53.59 304.27 53.04 304.12 52.55C303.96 52.06 303.74 51.63 303.45 51.29C303.16 50.93 302.8 50.66 302.37 50.47C301.94 50.28 301.47 50.19 300.95 50.19C299.88 50.19 299.05 50.53 298.47 51.19C297.89 51.86 297.6 52.85 297.6 54.16V55.35C297.6 55.78 297.45 56.13 297.15 56.42C296.85 56.7 296.48 56.85 296.07 56.85C295.66 56.85 295.29 56.71 294.99 56.42H294.97H294.94Z" fill="#614228"/>
<path d="M274.03 58.27C273.77 58.03 273.64 57.73 273.64 57.36V51.14C273.64 50.32 273.76 49.56 274 48.86C274.24 48.16 274.59 47.55 275.05 47.02C275.52 46.49 276.09 46.08 276.77 45.78C277.44 45.49 278.21 45.34 279.05 45.34C279.89 45.34 280.94 45.49 281.64 45.78C282.33 46.07 282.92 46.49 283.41 47.02C283.89 47.55 284.25 48.18 284.51 48.92C284.76 49.66 284.89 50.47 284.89 51.35V57.36C284.89 57.72 284.77 58.02 284.52 58.27C284.26 58.52 283.96 58.63 283.6 58.63C283.24 58.63 282.93 58.51 282.67 58.27C282.41 58.03 282.28 57.73 282.28 57.36V56.32H276.26V57.36C276.26 57.72 276.13 58.03 275.87 58.27C275.61 58.52 275.31 58.63 274.95 58.63C274.59 58.63 274.28 58.51 274.04 58.27H274.03ZM281.48 52.8C281.91 52.8 282.26 52.45 282.26 52.02V51.36C282.26 50.84 282.2 50.38 282.06 49.96C281.92 49.54 281.74 49.18 281.48 48.89C281.22 48.59 280.92 48.35 280.56 48.2C280.2 48.04 279.54 47.96 279.1 47.96C278.2 47.96 277.5 48.25 277 48.83C276.5 49.41 276.25 50.25 276.25 51.35V52.05C276.25 52.48 276.6 52.83 277.03 52.83H281.47L281.48 52.8Z" fill="#614228"/>
<path d="M274.95 58.63H283.59V54.75H275.04L274.95 58.63Z" fill="#614228"/>
<path d="M287.75 71.62C286.95 71.28 286.28 70.79 285.73 70.16C285.19 69.55 284.77 68.84 284.49 68.01C284.21 67.19 284.07 66.29 284.07 65.33V64.74C284.07 64.31 284.22 63.96 284.52 63.67C284.8 63.39 285.16 63.24 285.59 63.24C286.02 63.24 286.37 63.38 286.67 63.67C286.97 63.95 287.12 64.31 287.12 64.74V65.13C287.12 66.43 287.41 67.41 287.99 68.09C288.57 68.76 289.4 69.09 290.47 69.09C290.99 69.09 291.45 69 291.87 68.81C292.29 68.62 292.65 68.35 292.95 67.99C293.24 67.64 293.47 67.22 293.62 66.73C293.78 66.24 293.85 65.68 293.85 65.08V64.74C293.85 64.31 294 63.96 294.3 63.67C294.6 63.39 294.97 63.24 295.39 63.24C295.81 63.24 296.17 63.38 296.47 63.67C296.76 63.96 296.91 64.32 296.91 64.74V65.1C296.91 66.13 296.76 67.08 296.46 67.94C296.16 68.8 295.73 69.54 295.17 70.17C294.6 70.8 293.91 71.29 293.09 71.63C292.28 71.97 291.37 72.14 290.37 72.14C289.37 72.14 288.49 71.97 287.7 71.62H287.72H287.75Z" fill="#614228"/>
<path d="M273.36 67.73C274.02 67.73 274.56 67.19 274.56 66.53C274.56 65.87 274.02 65.33 273.36 65.33C272.7 65.33 272.16 65.87 272.16 66.53C272.16 67.19 272.7 67.73 273.36 67.73Z" fill="#614228"/>
<path d="M270.33 63.93C270.99 63.93 271.53 63.39 271.53 62.73C271.53 62.07 270.99 61.53 270.33 61.53C269.67 61.53 269.13 62.07 269.13 62.73C269.13 63.39 269.67 63.93 270.33 63.93Z" fill="#614228"/>
<path d="M276.4 63.93C277.06 63.93 277.6 63.39 277.6 62.73C277.6 62.07 277.06 61.53 276.4 61.53C275.74 61.53 275.2 62.07 275.2 62.73C275.2 63.39 275.74 63.93 276.4 63.93Z" fill="#614228"/>
<path d="M307.67 67.73C308.33 67.73 308.87 67.19 308.87 66.53C308.87 65.87 308.33 65.33 307.67 65.33C307.01 65.33 306.47 65.87 306.47 66.53C306.47 67.19 307.01 67.73 307.67 67.73Z" fill="#614228"/>
<path d="M304.64 63.93C305.3 63.93 305.84 63.39 305.84 62.73C305.84 62.07 305.3 61.53 304.64 61.53C303.98 61.53 303.44 62.07 303.44 62.73C303.44 63.39 303.98 63.93 304.64 63.93Z" fill="#614228"/>
<path d="M310.7 63.93C311.36 63.93 311.9 63.39 311.9 62.73C311.9 62.07 311.36 61.53 310.7 61.53C310.04 61.53 309.5 62.07 309.5 62.73C309.5 63.39 310.04 63.93 310.7 63.93Z" fill="#614228"/>
<path d="M305.74 25.96L290.52 25.08L275.3 25.96C275.3 25.96 261.7 35.09 259.63 51.47C259.63 51.47 266.21 40.55 290.53 40.55C314.85 40.55 321.43 51.47 321.43 51.47C319.36 35.09 305.76 25.96 305.76 25.96H305.74Z" fill="#614228"/>
<path d="M268.57 57.7801C268.57 61.7601 267.21 66.1301 263.28 66.1301C259.35 66.1301 255.37 61.7001 255.37 57.7101C255.37 53.7201 257.53 50.5601 261.46 50.5601C265.39 50.5601 268.57 53.7901 268.57 57.7701V57.7801Z" fill="white"/>
<path d="M259.39 57.4501C259.39 57.4501 262.02 57.0601 264.01 59.2601" stroke="#614228" stroke-width="1.49" stroke-miterlimit="10" stroke-linecap="round"/>
<path d="M312.5 57.7801C312.5 61.7601 313.86 66.1301 317.79 66.1301C321.72 66.1301 325.7 61.7001 325.7 57.7101C325.7 53.7201 323.54 50.5601 319.61 50.5601C315.68 50.5601 312.5 53.7901 312.5 57.7701V57.7801Z" fill="white"/>
<path d="M321.68 57.4501C321.68 57.4501 319.05 57.0601 317.06 59.2601" stroke="#614228" stroke-width="1.49" stroke-miterlimit="10" stroke-linecap="round"/>
<path d="M285.59 63.24H295.43V67.55C295.43 69.19 294.1 70.53 292.45 70.53H288.61C286.97 70.53 285.65 69.21 285.63 67.57L285.59 63.24Z" fill="#614228"/>
<path d="M243.95 87.36C242.78 87.47 240.39 87.41 239.18 87.25C233.52 86.48 229.29 83.09 229.49 76.95C229.69 70.81 234.22 66.75 240.11 65.65C241.37 65.41 243.63 65.54 244.88 65.83C250.69 67.2 254.95 72.02 254.63 78.06C254.31 84.1 249.4 86.84 243.95 87.36Z" fill="#C42A22"/>
<path d="M239.75 68.3901C240.24 68.8801 241.23 69.0301 241.84 68.7101C242.6 68.3101 242.72 67.6601 243 67.5001C243.4 67.2601 243.81 69.1401 242.68 70.1101C242.19 70.5301 242.71 71.0801 242.88 71.3801C243.06 71.7001 242.87 72.0901 242.5 72.1001C241.7 72.1201 240.69 72.0701 240.28 71.7001C239.55 71.0501 238.64 71.7001 238.64 71.7001C238.64 71.7001 235.43 72.2901 237.05 70.9201C237.96 70.1501 237.97 69.2501 237.81 68.6101C237.7 68.1701 237.46 67.4501 237.91 67.4801C238.48 67.5101 239.41 68.0701 239.75 68.4001V68.3901Z" fill="#13BF17"/>
<path d="M290.54 79.53C273.55 79.53 259.78 93.3 259.78 110.29V116.74C258.98 121.62 255.67 142.6 256.17 152.75H259.78V152.87H321.3V110.29C321.3 93.3 307.53 79.53 290.54 79.53Z" fill="#614228"/>
<path d="M254.92 112.01C247.72 114.77 231.39 111 227.42 99.06C223.44 87.12 224.61 75.5 229.48 74.45C234.35 73.4 238.17 78.25 239.63 89.34C240.04 92.44 246.69 92.89 255.52 89.04C262.32 86.08 271.05 89.21 271.93 96.58C272.56 101.89 268.18 106.93 254.92 112.02V112.01Z" fill="white"/>
<path d="M248.04 91.73C252.51 96.64 252.39 106.8 252 112.99C251.88 114.93 255.52 116.4 257.45 116.2C260.06 115.93 266.9 117.33 271.72 113.79C276.55 110.25 278.5 101.25 280.21 95.82C284.56 82 266.57 76.56 248.61 87.86C247.29 88.69 246.99 90.56 248.04 91.72V91.73Z" fill="#614228"/>
<path d="M330.8 115.95L334.54 153H319.26V118.53L330.8 115.95Z" fill="white"/>
<path d="M282.61 80.4C282.61 80.4 273.45 79.78 260.93 82.68C257.19 83.54 273.34 92 282.61 80.4Z" fill="#614228"/>
<path d="M295.7 80.8499C295.7 80.8499 323.09 78.0099 330.01 103.95C330.36 105.26 332.61 114.49 332.68 117.07C332.7 117.71 332.59 118.35 332.35 118.94C326.38 133.68 308.97 122.54 308.97 122.54L295.71 80.8399L295.7 80.8499Z" fill="#614228"/>
<path d="M290.54 86.87L282.88 78.83L298.33 79.23L290.54 86.87Z" fill="white"/>
<path d="M295.7 80.85L290.54 86.88C290.54 86.88 301.04 84.73 304.35 88.61C303.76 85 300.98 81.81 298.47 80.41C297.57 79.91 296.43 80.12 295.7 80.85Z" fill="#DE6437"/>
<path d="M285.38 80.85L290.54 86.88C290.54 86.88 280.04 84.73 276.73 88.61C277.32 85 280.1 81.81 282.61 80.41C283.51 79.91 284.65 80.12 285.38 80.85Z" fill="#DE6437"/>
<path d="M61.23 63.03L60.46 59.65L62.45 60.77L64.46 57.91L65.1 60.82L67.65 59.16L65.57 63.03H61.23Z" fill="#93AF2E"/>
<path d="M21.21 63.03L20.38 59.39L22.52 60.6L24.68 57.53L25.37 60.66L28.11 58.88L25.88 63.03H21.21Z" fill="#93AF2E"/>
<path d="M27.99 62.89L27.52 60.89L28.73 61.56L29.95 59.86L30.34 61.59L31.88 60.61L30.62 62.89H27.99Z" fill="#93AF2E"/>
</g>
<defs>
<clipPath id="clip0_625_2426">
<rect width="360" height="153" fill="white"/>
</clipPath>
</defs>
</svg>
