<svg width="24" height="24" viewBox="0 0 24 24" fill="none" xmlns="http://www.w3.org/2000/svg">
<path d="M22.428 4.17288L15.45 2.22101L8.45156 4.19238L1.94339 2.34616C1.80393 2.3066 1.6572 2.29991 1.51472 2.32663C1.37224 2.35334 1.23789 2.41274 1.12224 2.50014C1.00659 2.58754 0.91279 2.70058 0.8482 2.83036C0.783611 2.96013 0.749997 3.10312 0.75 3.24809V19.2137C0.750709 19.4584 0.830844 19.6962 0.97835 19.8914C1.12586 20.0865 1.33276 20.2285 1.56792 20.296L8.44997 22.2484L15.4515 20.2761L22.06 22.1247C22.1994 22.1637 22.3458 22.1698 22.488 22.1428C22.6301 22.1157 22.764 22.0561 22.8793 21.9686C22.9945 21.8812 23.0879 21.7682 23.1523 21.6386C23.2166 21.509 23.25 21.3663 23.25 21.2216V5.25631C23.2494 5.01092 23.1688 4.77241 23.0205 4.57691C22.8722 4.38142 22.6642 4.23958 22.428 4.17288ZM7.64062 20.4593L2.25 18.9301V3.99232L7.64062 5.52157V20.4593ZM14.7007 18.929L9.14062 20.4952V5.55663L14.7007 3.99045V18.929ZM21.75 20.4801L16.2007 18.9281V3.98852L21.75 5.5406V20.4801Z" fill="#FF7A00"/>
<path d="M7.64062 20.4593L2.25 18.9301V3.99232L7.64062 5.52157V20.4593Z" fill="#FF7A00"/>
<path d="M21.75 20.4801L16.2007 18.9281V3.98852L21.75 5.5406V20.4801Z" fill="#FF7A00"/>
</svg>
