<svg width="127" height="127" viewBox="0 0 127 127" fill="none" xmlns="http://www.w3.org/2000/svg">
<circle opacity="0.6" cx="63.5" cy="63.5" r="63.5" fill="#FFD7B3"/>
<path fill-rule="evenodd" clip-rule="evenodd" d="M55.517 51.535C56.6281 50.4156 57.9496 49.5269 59.4054 48.9203C60.8613 48.3136 62.4228 48.0008 64 48C67.18 48 70.232 49.27 72.483 51.535C74.7374 53.8062 76.0017 56.8769 76 60.077C76 65.603 72.936 70.605 69.744 74.298C68.3989 75.8467 66.9405 77.2934 65.381 78.626C64.9301 79.0128 64.4696 79.3882 64 79.752C63.5306 79.388 63.0701 79.0125 62.619 78.626C61.0595 77.2934 59.6011 75.8467 58.256 74.298C55.064 70.605 52 65.603 52 60.077C52 56.872 53.266 53.8 55.517 51.535ZM63.424 81.817L64 81L64.576 81.817C64.4073 81.9355 64.2062 81.9991 64 81.9991C63.7938 81.9991 63.5927 81.9355 63.424 81.817ZM63.424 81.817L64 81L64.576 81.817L64.58 81.815L64.59 81.808L64.62 81.785L64.738 81.7C64.838 81.626 64.984 81.518 65.168 81.376C65.536 81.094 66.058 80.679 66.681 80.146C68.3164 78.7481 69.8456 77.2306 71.256 75.606C74.564 71.78 78 66.32 78 60.076C78 56.346 76.526 52.766 73.902 50.126C72.605 48.8194 71.0625 47.7822 69.3631 47.0741C67.6637 46.366 65.841 46.0009 64 46C62.1591 46.0008 60.3364 46.3657 58.637 47.0736C56.9377 47.7815 55.3951 48.8186 54.098 50.125C51.4714 52.771 49.9982 56.3487 50 60.077C50 66.32 53.436 71.78 56.744 75.606C58.1544 77.2306 59.6836 78.7481 61.319 80.146C61.943 80.679 62.464 81.094 62.832 81.376C63.0125 81.5151 63.1948 81.6518 63.379 81.786L63.411 81.808L63.42 81.815L63.424 81.817ZM60 60C60 58.9391 60.4214 57.9217 61.1716 57.1716C61.9217 56.4214 62.9391 56 64 56C65.0609 56 66.0783 56.4214 66.8284 57.1716C67.5786 57.9217 68 58.9391 68 60C68 61.0609 67.5786 62.0783 66.8284 62.8284C66.0783 63.5786 65.0609 64 64 64C62.9391 64 61.9217 63.5786 61.1716 62.8284C60.4214 62.0783 60 61.0609 60 60ZM64 54C62.4087 54 60.8826 54.6321 59.7574 55.7574C58.6321 56.8826 58 58.4087 58 60C58 61.5913 58.6321 63.1174 59.7574 64.2426C60.8826 65.3679 62.4087 66 64 66C65.5913 66 67.1174 65.3679 68.2426 64.2426C69.3679 63.1174 70 61.5913 70 60C70 58.4087 69.3679 56.8826 68.2426 55.7574C67.1174 54.6321 65.5913 54 64 54Z" fill="#FF7A00"/>
<path fill-rule="evenodd" clip-rule="evenodd" d="M55.517 51.535C56.6281 50.4156 57.9496 49.5269 59.4054 48.9203C60.8613 48.3136 62.4228 48.0008 64 48C67.18 48 70.232 49.27 72.483 51.535C74.7374 53.8062 76.0017 56.8769 76 60.077C76 65.603 72.936 70.605 69.744 74.298C68.3989 75.8467 66.9405 77.2934 65.381 78.626C64.9301 79.0128 64.4696 79.3882 64 79.752C63.5306 79.388 63.0701 79.0125 62.619 78.626C61.0595 77.2934 59.6011 75.8467 58.256 74.298C55.064 70.605 52 65.603 52 60.077C52 56.872 53.266 53.8 55.517 51.535ZM59.7574 55.7574C60.8826 54.6321 62.4087 54 64 54C65.5913 54 67.1174 54.6321 68.2426 55.7574C69.3679 56.8826 70 58.4087 70 60C70 61.5913 69.3679 63.1174 68.2426 64.2426C67.1174 65.3679 65.5913 66 64 66C62.4087 66 60.8826 65.3679 59.7574 64.2426C58.6321 63.1174 58 61.5913 58 60C58 58.4087 58.6321 56.8826 59.7574 55.7574Z" fill="#FF7A00"/>
</svg>
