<svg width="76" height="76" viewBox="0 0 76 76" fill="none" xmlns="http://www.w3.org/2000/svg">
<g filter="url(#filter0_d_309_1512)">
<rect x="4" y="2" width="68" height="68" rx="8" fill="white"/>
<rect x="4.5" y="2.5" width="67" height="67" rx="7.5" stroke="#FF7A00"/>
</g>
<path d="M31.736 50.656H28.016V53.38H31.58V54.436H28.016V58H26.9V49.6H31.736V50.656ZM34.0835 53.008C34.4275 52.264 35.0515 51.892 35.9555 51.892V52.984C35.4435 52.96 35.0035 53.096 34.6355 53.392C34.2675 53.688 34.0835 54.164 34.0835 54.82V58H33.0395V52H34.0835V53.008ZM41.177 52H42.221V58H41.177V57.136C40.753 57.816 40.105 58.156 39.233 58.156C38.529 58.156 37.965 57.936 37.541 57.496C37.117 57.048 36.905 56.444 36.905 55.684V52H37.949V55.624C37.949 56.112 38.081 56.492 38.345 56.764C38.609 57.028 38.973 57.16 39.437 57.16C39.957 57.16 40.377 57 40.697 56.68C41.017 56.352 41.177 55.852 41.177 55.18V52ZM44.3984 50.908C44.1984 50.908 44.0304 50.84 43.8944 50.704C43.7584 50.568 43.6904 50.404 43.6904 50.212C43.6904 50.02 43.7584 49.856 43.8944 49.72C44.0304 49.576 44.1984 49.504 44.3984 49.504C44.5904 49.504 44.7544 49.576 44.8904 49.72C45.0264 49.856 45.0944 50.02 45.0944 50.212C45.0944 50.404 45.0264 50.568 44.8904 50.704C44.7544 50.84 44.5904 50.908 44.3984 50.908ZM43.8704 58V52H44.9144V58H43.8704ZM49.8312 53.008H48.2352V56.26C48.2352 56.556 48.2912 56.768 48.4032 56.896C48.5232 57.016 48.7032 57.08 48.9432 57.088C49.1832 57.088 49.4792 57.08 49.8312 57.064V58C48.9192 58.12 48.2512 58.048 47.8272 57.784C47.4032 57.512 47.1912 57.004 47.1912 56.26V53.008H46.0032V52H47.1912V50.632L48.2352 50.32V52H49.8312V53.008Z" fill="black" fill-opacity="0.87"/>
<g clip-path="url(#clip0_309_1512)">
<path d="M44.8164 18.1407C40.9069 18.1407 41.4029 18.5185 40.1338 18.9253C39.0689 19.274 37.9311 19.274 36.8516 18.9253C35.5825 18.5185 36.0785 18.1407 32.169 18.1407C23.6499 18.1407 20.922 31.6964 28.2012 38.8737C33.3944 44.0025 35.0865 43.2324 37.1871 42.3752C38.0332 42.0265 38.9668 42.0265 39.8129 42.3752C41.9135 43.2324 43.6056 43.9879 48.7988 38.8737C56.078 31.6964 53.3501 18.1407 44.8164 18.1407Z" fill="#EE1707"/>
<path d="M39.6523 18.6783C39.6523 18.6783 40.5714 15.1478 43.7952 14.276C47.019 13.4043 49.353 14.9298 49.353 14.9298C44.3495 17.8647 40.5422 17.6613 39.6523 18.6928V18.6783Z" fill="#0BA032"/>
<path d="M38.5 18.9253C38.7334 18.9253 38.923 18.8527 38.923 18.751L39.3023 16.281C39.2731 15.9033 39.1856 15.5836 38.8063 15.5836H38.1791C37.7998 15.5836 37.7123 15.9033 37.6831 16.281L38.0624 18.751C38.0624 18.8381 38.252 18.9253 38.4854 18.9253" fill="#7F4718"/>
</g>
<defs>
<filter id="filter0_d_309_1512" x="0" y="0" width="76" height="76" filterUnits="userSpaceOnUse" color-interpolation-filters="sRGB">
<feFlood flood-opacity="0" result="BackgroundImageFix"/>
<feColorMatrix in="SourceAlpha" type="matrix" values="0 0 0 0 0 0 0 0 0 0 0 0 0 0 0 0 0 0 127 0" result="hardAlpha"/>
<feOffset dy="2"/>
<feGaussianBlur stdDeviation="2"/>
<feComposite in2="hardAlpha" operator="out"/>
<feColorMatrix type="matrix" values="0 0 0 0 0 0 0 0 0 0 0 0 0 0 0 0 0 0 0.08 0"/>
<feBlend mode="normal" in2="BackgroundImageFix" result="effect1_dropShadow_309_1512"/>
<feBlend mode="normal" in="SourceGraphic" in2="effect1_dropShadow_309_1512" result="shape"/>
</filter>
<clipPath id="clip0_309_1512">
<rect width="29" height="29" fill="white" transform="translate(24 14)"/>
</clipPath>
</defs>
</svg>
