<svg width="76" height="76" viewBox="0 0 76 76" fill="none" xmlns="http://www.w3.org/2000/svg">
<g filter="url(#filter0_d_309_1511)">
<rect x="4" y="2" width="68" height="68" rx="8" fill="white"/>
<rect x="4.5" y="2.5" width="67" height="67" rx="7.5" stroke="#FF7A00"/>
</g>
<path d="M12.096 58L9.096 49.6H10.296L12.732 56.608L15.156 49.6H16.368L13.356 58H12.096ZM17.3223 55.48C17.4263 56.016 17.6703 56.432 18.0543 56.728C18.4463 57.024 18.9263 57.172 19.4943 57.172C20.2863 57.172 20.8623 56.88 21.2223 56.296L22.1103 56.8C21.5263 57.704 20.6463 58.156 19.4703 58.156C18.5183 58.156 17.7423 57.86 17.1423 57.268C16.5503 56.668 16.2543 55.912 16.2543 55C16.2543 54.096 16.5463 53.344 17.1303 52.744C17.7143 52.144 18.4703 51.844 19.3983 51.844C20.2783 51.844 20.9943 52.156 21.5463 52.78C22.1063 53.396 22.3863 54.14 22.3863 55.012C22.3863 55.164 22.3743 55.32 22.3503 55.48H17.3223ZM19.3983 52.828C18.8383 52.828 18.3743 52.988 18.0063 53.308C17.6383 53.62 17.4103 54.04 17.3223 54.568H21.3303C21.2423 54 21.0183 53.568 20.6583 53.272C20.2983 52.976 19.8783 52.828 19.3983 52.828ZM28.6147 52H29.6467V57.748C29.6467 58.636 29.3467 59.324 28.7467 59.812C28.1467 60.308 27.4267 60.556 26.5867 60.556C25.9147 60.556 25.3347 60.428 24.8467 60.172C24.3587 59.924 23.9907 59.564 23.7427 59.092L24.6547 58.576C24.9827 59.248 25.6347 59.584 26.6107 59.584C27.2347 59.584 27.7227 59.42 28.0747 59.092C28.4347 58.764 28.6147 58.316 28.6147 57.748V56.896C28.0867 57.696 27.3347 58.096 26.3587 58.096C25.5027 58.096 24.7787 57.792 24.1867 57.184C23.5947 56.576 23.2987 55.836 23.2987 54.964C23.2987 54.092 23.5947 53.356 24.1867 52.756C24.7787 52.148 25.5027 51.844 26.3587 51.844C27.3427 51.844 28.0947 52.24 28.6147 53.032V52ZM24.9547 56.488C25.3627 56.896 25.8707 57.1 26.4787 57.1C27.0867 57.1 27.5947 56.896 28.0027 56.488C28.4107 56.08 28.6147 55.572 28.6147 54.964C28.6147 54.364 28.4107 53.86 28.0027 53.452C27.5947 53.044 27.0867 52.84 26.4787 52.84C25.8707 52.84 25.3627 53.044 24.9547 53.452C24.5467 53.86 24.3427 54.364 24.3427 54.964C24.3427 55.572 24.5467 56.08 24.9547 56.488ZM32.0204 55.48C32.1244 56.016 32.3684 56.432 32.7524 56.728C33.1444 57.024 33.6244 57.172 34.1924 57.172C34.9844 57.172 35.5604 56.88 35.9204 56.296L36.8084 56.8C36.2244 57.704 35.3444 58.156 34.1684 58.156C33.2164 58.156 32.4404 57.86 31.8404 57.268C31.2484 56.668 30.9524 55.912 30.9524 55C30.9524 54.096 31.2444 53.344 31.8284 52.744C32.4124 52.144 33.1684 51.844 34.0964 51.844C34.9764 51.844 35.6924 52.156 36.2444 52.78C36.8044 53.396 37.0844 54.14 37.0844 55.012C37.0844 55.164 37.0724 55.32 37.0484 55.48H32.0204ZM34.0964 52.828C33.5364 52.828 33.0724 52.988 32.7044 53.308C32.3364 53.62 32.1084 54.04 32.0204 54.568H36.0284C35.9404 54 35.7164 53.568 35.3564 53.272C34.9964 52.976 34.5764 52.828 34.0964 52.828ZM41.4327 53.008H39.8367V56.26C39.8367 56.556 39.8927 56.768 40.0047 56.896C40.1247 57.016 40.3047 57.08 40.5447 57.088C40.7847 57.088 41.0807 57.08 41.4327 57.064V58C40.5207 58.12 39.8527 58.048 39.4287 57.784C39.0047 57.512 38.7927 57.004 38.7927 56.26V53.008H37.6047V52H38.7927V50.632L39.8367 50.32V52H41.4327V53.008ZM47.392 52H48.436V58H47.392V56.968C46.872 57.76 46.116 58.156 45.124 58.156C44.284 58.156 43.568 57.852 42.976 57.244C42.384 56.628 42.088 55.88 42.088 55C42.088 54.12 42.384 53.376 42.976 52.768C43.568 52.152 44.284 51.844 45.124 51.844C46.116 51.844 46.872 52.24 47.392 53.032V52ZM45.256 57.148C45.864 57.148 46.372 56.944 46.78 56.536C47.188 56.12 47.392 55.608 47.392 55C47.392 54.392 47.188 53.884 46.78 53.476C46.372 53.06 45.864 52.852 45.256 52.852C44.656 52.852 44.152 53.06 43.744 53.476C43.336 53.884 43.132 54.392 43.132 55C43.132 55.608 43.336 56.12 43.744 56.536C44.152 56.944 44.656 57.148 45.256 57.148ZM53.3898 51.844C54.2298 51.844 54.9458 52.152 55.5378 52.768C56.1298 53.376 56.4258 54.12 56.4258 55C56.4258 55.88 56.1298 56.628 55.5378 57.244C54.9458 57.852 54.2298 58.156 53.3898 58.156C52.3978 58.156 51.6418 57.76 51.1218 56.968V58H50.0778V49.6H51.1218V53.032C51.6418 52.24 52.3978 51.844 53.3898 51.844ZM53.2578 57.148C53.8578 57.148 54.3618 56.944 54.7698 56.536C55.1778 56.12 55.3818 55.608 55.3818 55C55.3818 54.392 55.1778 53.884 54.7698 53.476C54.3618 53.06 53.8578 52.852 53.2578 52.852C52.6498 52.852 52.1418 53.06 51.7338 53.476C51.3258 53.884 51.1218 54.392 51.1218 55C51.1218 55.608 51.3258 56.12 51.7338 56.536C52.1418 56.944 52.6498 57.148 53.2578 57.148ZM57.7315 58V49.24H58.7755V58H57.7315ZM61.1602 55.48C61.2642 56.016 61.5082 56.432 61.8922 56.728C62.2842 57.024 62.7642 57.172 63.3322 57.172C64.1242 57.172 64.7002 56.88 65.0602 56.296L65.9482 56.8C65.3642 57.704 64.4842 58.156 63.3082 58.156C62.3562 58.156 61.5802 57.86 60.9802 57.268C60.3882 56.668 60.0922 55.912 60.0922 55C60.0922 54.096 60.3842 53.344 60.9682 52.744C61.5522 52.144 62.3082 51.844 63.2362 51.844C64.1162 51.844 64.8322 52.156 65.3842 52.78C65.9442 53.396 66.2242 54.14 66.2242 55.012C66.2242 55.164 66.2122 55.32 66.1882 55.48H61.1602ZM63.2362 52.828C62.6762 52.828 62.2122 52.988 61.8442 53.308C61.4762 53.62 61.2482 54.04 61.1602 54.568H65.1682C65.0802 54 64.8562 53.568 64.4962 53.272C64.1362 52.976 63.7162 52.828 63.2362 52.828Z" fill="black" fill-opacity="0.87"/>
<path d="M44.623 20.9416C44.623 20.9416 48.5202 17.6062 47.8064 15.228C47.0927 12.8447 45.5764 14.762 44.9033 15.8031C44.2303 16.8441 45.4924 7.916 43.783 7.95404C42.0737 7.99207 40.1075 15.5637 44.6231 20.9466L44.623 20.9416Z" fill="#4CB738"/>
<path d="M45.6595 21.9446C45.6595 21.9446 48.7963 16.7417 53.201 15.9772C57.6058 15.2127 56.2187 18.9127 54.0138 19.295C51.8089 19.6773 62.2831 17.7245 63.9286 20.1261C65.5791 22.5275 58.8084 23.0123 45.6595 21.9446Z" fill="#4CB738"/>
<path d="M44.8603 21.8426C40.3594 17.4865 37.1617 16.089 30.7994 26.8406C25.5274 35.7541 23.9177 40.7922 23.4287 42.9443C23.2879 43.5675 23.8518 44.1132 24.4675 43.9498C26.6025 43.3906 31.5828 41.6198 40.3218 36.0569C50.8598 29.3467 49.3611 26.1988 44.8577 21.8402L44.8603 21.8426Z" fill="#FF7A00"/>
<defs>
<filter id="filter0_d_309_1511" x="0" y="0" width="76" height="76" filterUnits="userSpaceOnUse" color-interpolation-filters="sRGB">
<feFlood flood-opacity="0" result="BackgroundImageFix"/>
<feColorMatrix in="SourceAlpha" type="matrix" values="0 0 0 0 0 0 0 0 0 0 0 0 0 0 0 0 0 0 127 0" result="hardAlpha"/>
<feOffset dy="2"/>
<feGaussianBlur stdDeviation="2"/>
<feComposite in2="hardAlpha" operator="out"/>
<feColorMatrix type="matrix" values="0 0 0 0 0 0 0 0 0 0 0 0 0 0 0 0 0 0 0.08 0"/>
<feBlend mode="normal" in2="BackgroundImageFix" result="effect1_dropShadow_309_1511"/>
<feBlend mode="normal" in="SourceGraphic" in2="effect1_dropShadow_309_1511" result="shape"/>
</filter>
</defs>
</svg>
