<svg width="121" height="30" viewBox="0 0 121 30" fill="none" xmlns="http://www.w3.org/2000/svg">
<g clip-path="url(#clip0_62_641)">
<path d="M10.56 28.93C9.97 28.45 9.68 27.85 9.68 27.13V19.25C8.32 19.03 7.04 18.6 5.85 17.96C4.66 17.32 3.62 16.53 2.74 15.59C1.89 14.69 1.24 13.72 0.79 12.67C0.33 11.62 0.07 10.55 0 9.46V2.47C0 1.8 0.28 1.21 0.85 0.72C1.4 0.24 2.08 0 2.89 0C3.7 0 4.4 0.23 4.93 0.7C5.46 1.16 5.73 1.76 5.73 2.47V9.25C5.73 9.98 5.89 10.68 6.22 11.33C6.55 11.98 7 12.55 7.59 13.05C8.18 13.56 8.85 13.95 9.62 14.23C10.39 14.51 11.19 14.65 12.04 14.65C12.89 14.65 13.71 14.51 14.46 14.23C15.21 13.95 15.87 13.56 16.44 13.05C17.01 12.54 17.45 11.95 17.76 11.29C18.07 10.62 18.23 9.92 18.23 9.17V2.47C18.23 1.8 18.51 1.21 19.08 0.72C19.63 0.24 20.31 0 21.12 0C21.93 0 22.63 0.23 23.16 0.7C23.69 1.16 23.96 1.76 23.96 2.47V8.87C23.96 10.07 23.76 11.21 23.35 12.31C22.94 13.4 22.36 14.4 21.6 15.3C20.84 16.2 19.93 16.97 18.88 17.61C17.83 18.25 16.68 18.73 15.44 19.05V27.14C15.44 27.84 15.16 28.44 14.59 28.94C14.33 29.18 14.02 29.36 13.67 29.49C13.32 29.62 12.95 29.68 12.57 29.68C11.74 29.68 11.06 29.43 10.53 28.94L10.56 28.93Z" fill="#FF7A00"/>
<path d="M28.31 29.13C27.72 28.65 27.43 28.05 27.43 27.33V11.43C27.43 9.81 27.7 8.31 28.25 6.93C28.79 5.55 29.59 4.34 30.64 3.3C31.71 2.25 33.01 1.44 34.55 0.86C36.09 0.28 37.81 0 39.73 0C41.65 0 43.42 0.29 45 0.86C46.58 1.44 47.92 2.25 49.02 3.3C50.11 4.35 50.94 5.6 51.52 7.05C52.1 8.5 52.39 10.1 52.39 11.83V27.33C52.39 28.03 52.11 28.63 51.54 29.13C50.95 29.61 50.25 29.85 49.44 29.85C48.63 29.85 47.9 29.61 47.32 29.13C46.73 28.65 46.44 28.05 46.44 27.33V21.65H33.37V27.33C33.37 28.05 33.08 28.65 32.49 29.13C31.9 29.61 31.2 29.85 30.39 29.85C29.58 29.85 28.87 29.61 28.32 29.13H28.31ZM46.43 16.53V11.86C46.43 10.84 46.28 9.92 45.98 9.09C45.68 8.26 45.24 7.55 44.67 6.97C44.08 6.37 43.38 5.91 42.57 5.6C41.76 5.29 40.85 5.13 39.85 5.13C37.8 5.13 36.2 5.7 35.06 6.84C33.92 7.98 33.35 9.63 33.35 11.8V16.54H46.42L46.43 16.53Z" fill="#FF7A00"/>
<path d="M57.35 29.13C56.76 28.65 56.47 28.05 56.47 27.33V11.43C56.47 9.83 56.75 8.33 57.3 6.94C57.85 5.55 58.65 4.33 59.71 3.3C60.78 2.25 62.08 1.44 63.61 0.86C65.14 0.28 66.86 0 68.77 0C70.68 0 72.48 0.29 74.06 0.86C75.64 1.44 76.98 2.25 78.09 3.3C79.18 4.35 80.01 5.6 80.59 7.05C81.17 8.5 81.46 10.1 81.46 11.83V27.33C81.46 28.03 81.18 28.63 80.61 29.13C80.02 29.61 79.32 29.85 78.49 29.85C77.66 29.85 76.97 29.61 76.42 29.13C75.83 28.65 75.54 28.05 75.54 27.33V11.85C75.54 10.83 75.39 9.91 75.09 9.08C74.79 8.25 74.35 7.54 73.78 6.96C73.21 6.36 72.51 5.9 71.68 5.59C70.85 5.28 69.94 5.12 68.94 5.12C66.87 5.12 65.27 5.68 64.14 6.8C63.01 7.92 62.44 9.59 62.44 11.79V27.33C62.44 28.05 62.15 28.65 61.56 29.13C60.97 29.61 60.27 29.85 59.46 29.85C58.65 29.85 57.95 29.61 57.36 29.13H57.35Z" fill="#FF7A00"/>
<path d="M92.66 29.05C91.12 28.47 89.82 27.65 88.75 26.59C87.7 25.57 86.9 24.37 86.36 22.99C85.82 21.61 85.54 20.1 85.54 18.49V2.58C85.54 1.86 85.83 1.26 86.42 0.779998C86.97 0.299998 87.66 0.0599976 88.49 0.0599976C89.32 0.0599976 90 0.299998 90.59 0.779998C91.18 1.26 91.47 1.86 91.47 2.58V18.15C91.47 20.34 92.03 21.99 93.17 23.11C94.3 24.23 95.9 24.79 97.97 24.79C98.97 24.79 99.88 24.63 100.69 24.32C101.5 24.01 102.2 23.55 102.79 22.95C103.36 22.37 103.8 21.66 104.1 20.83C104.4 20 104.55 19.07 104.55 18.06V2.58C104.55 1.86 104.84 1.26 105.43 0.779998C106.02 0.299998 106.72 0.0599976 107.55 0.0599976C108.38 0.0599976 109.06 0.299998 109.65 0.779998C110.22 1.27 110.5 1.87 110.5 2.58V18.1C110.5 19.84 110.21 21.43 109.63 22.87C109.05 24.32 108.22 25.56 107.13 26.61C106.03 27.67 104.68 28.49 103.11 29.06C101.53 29.63 99.78 29.91 97.84 29.91C95.9 29.91 94.2 29.62 92.66 29.05Z" fill="#FF7A00"/>
<path d="M116.68 29.47C116.31 29.34 115.99 29.15 115.71 28.91C115.43 28.67 115.21 28.39 115.05 28.06C114.89 27.73 114.8 27.39 114.8 27.03C114.8 26.33 115.1 25.71 115.71 25.19C115.99 24.95 116.31 24.76 116.69 24.62C117.07 24.48 117.46 24.41 117.86 24.41C118.65 24.41 119.37 24.67 120.01 25.2C120.61 25.69 120.92 26.31 120.92 27.04C120.92 27.41 120.84 27.76 120.69 28.08C120.53 28.4 120.31 28.68 120.02 28.92C119.4 29.43 118.68 29.68 117.87 29.68C117.46 29.68 117.06 29.61 116.69 29.48L116.68 29.47ZM115.71 21.72C115.16 21.24 114.88 20.64 114.88 19.92V2.76C114.88 2.06 115.16 1.46 115.73 0.960001C116.3 0.460001 116.97 0.220001 117.75 0.220001C118.53 0.220001 119.23 0.470001 119.79 0.960001C120.34 1.44 120.62 2.04 120.62 2.76V19.92C120.62 20.64 120.34 21.24 119.79 21.72C119.22 22.21 118.53 22.46 117.72 22.46C116.91 22.46 116.27 22.21 115.7 21.72H115.71Z" fill="#FF7A00"/>
</g>
<defs>
<clipPath id="clip0_62_641">
<rect width="120.91" height="29.92" fill="white"/>
</clipPath>
</defs>
</svg>
